<svg width="23" height="23" viewBox="0 0 23 23" fill="none" xmlns="http://www.w3.org/2000/svg">
<path d="M11.0135 13.3135C11.2788 13.5789 11.6769 13.5789 11.9423 13.3135L21.9385 4.02501C22.1596 3.67116 22.1154 3.09616 21.4077 3.09616L1.5923 3.14039C1.06154 3.14039 0.619228 3.62693 1.0173 4.06924L11.0135 13.3135ZM22.1154 7.65194C22.1154 7.20963 21.5846 6.94424 21.2308 7.25386L13.4019 14.4635C12.8712 14.95 12.2077 15.2154 11.5 15.2154C10.7923 15.2154 10.1288 14.95 9.59807 14.5077L1.81346 7.25386C1.45961 6.94424 0.928843 7.1654 0.928843 7.65194C0.884612 9.64233 0.884612 15.0385 0.884612 17.6923C0.884612 18.6654 1.68077 19.4616 2.65384 19.4616H20.3462C21.3192 19.4616 22.1154 18.6654 22.1154 17.6923V7.65194Z" fill="currentColor"/>
</svg>
