<svg width="23" height="23" viewBox="0 0 23 23" fill="none" xmlns="http://www.w3.org/2000/svg">
<path d="M11.5 0.958334C8.73372 0.930224 6.06948 2.00158 4.09278 3.93695C2.11608 5.87233 0.988669 8.51335 0.958328 11.2796C0.968987 13.4657 1.67223 15.5922 2.96705 17.3536C4.26187 19.1151 6.08165 20.4208 8.16499 21.0833C8.69207 21.1792 8.88374 20.8629 8.88374 20.585V18.8313C5.95124 19.4542 5.32832 17.4513 5.32832 17.4513C5.13311 16.8225 4.71809 16.285 4.15916 15.9371C3.20083 15.3046 4.23583 15.3142 4.23583 15.3142C4.56707 15.3585 4.884 15.4772 5.16283 15.6614C5.44166 15.8456 5.67516 16.0906 5.84582 16.3779C6.14322 16.8936 6.63121 17.2719 7.20475 17.4315C7.77829 17.591 8.39153 17.5189 8.91249 17.2308C8.96607 16.706 9.20372 16.2172 9.58332 15.8508C7.24499 15.5921 4.79166 14.7104 4.79166 10.7525C4.77075 9.72007 5.15222 8.71998 5.85541 7.96375C5.53516 7.07736 5.57297 6.10105 5.96082 5.24208C5.96082 5.24208 6.85207 4.96417 8.83582 6.29625C10.5626 5.8361 12.3798 5.8361 14.1066 6.29625C16.1191 4.96417 16.9816 5.24208 16.9816 5.24208C17.3695 6.10105 17.4073 7.07736 17.0871 7.96375C17.8066 8.70612 18.2087 9.6995 18.2083 10.7333C18.2083 14.7008 15.7358 15.5729 13.4166 15.8317C13.6706 16.0782 13.8668 16.378 13.991 16.7094C14.1153 17.0408 14.1646 17.3956 14.1354 17.7483V20.5754C14.1354 20.9108 14.3271 21.1792 14.8541 21.0738C16.9316 20.4071 18.7452 19.1011 20.036 17.3421C21.3269 15.5832 22.0288 13.4613 22.0416 11.2796C22.0113 8.51335 20.8839 5.87233 18.9072 3.93695C16.9305 2.00158 14.2662 0.930224 11.5 0.958334Z" fill="currentColor"/>
</svg>
