<svg width="23" height="23" viewBox="0 0 23 23" fill="none" xmlns="http://www.w3.org/2000/svg">
<path d="M19.6171 1.91667H3.38292C3.20043 1.91413 3.01923 1.94757 2.84967 2.01507C2.68011 2.08257 2.5255 2.18282 2.39468 2.31008C2.26386 2.43733 2.1594 2.58911 2.08724 2.75675C2.01509 2.92439 1.97667 3.1046 1.97417 3.28708V19.7129C1.97667 19.8954 2.01509 20.0756 2.08724 20.2432C2.1594 20.4109 2.26386 20.5626 2.39468 20.6899C2.5255 20.8172 2.68011 20.9174 2.84967 20.9849C3.01923 21.0524 3.20043 21.0858 3.38292 21.0833H19.6171C19.7996 21.0858 19.9808 21.0524 20.1504 20.9849C20.3199 20.9174 20.4745 20.8172 20.6053 20.6899C20.7362 20.5626 20.8406 20.4109 20.9128 20.2432C20.9849 20.0756 21.0234 19.8954 21.0259 19.7129V3.28708C21.0234 3.1046 20.9849 2.92439 20.9128 2.75675C20.8406 2.58911 20.7362 2.43733 20.6053 2.31008C20.4745 2.18282 20.3199 2.08257 20.1504 2.01507C19.9808 1.94757 19.7996 1.91413 19.6171 1.91667ZM7.75292 17.9591H4.87792V9.33416H7.75292V17.9591ZM6.31542 8.12666C5.91892 8.12666 5.53866 7.96915 5.2583 7.68879C4.97793 7.40842 4.82042 7.02816 4.82042 6.63166C4.82042 6.23516 4.97793 5.85491 5.2583 5.57454C5.53866 5.29417 5.91892 5.13666 6.31542 5.13666C6.52596 5.11279 6.73917 5.13365 6.94109 5.19789C7.14301 5.26212 7.32909 5.36828 7.48714 5.50942C7.64518 5.65055 7.77164 5.82348 7.85822 6.01688C7.9448 6.21027 7.98955 6.41977 7.98955 6.63166C7.98955 6.84355 7.9448 7.05305 7.85822 7.24645C7.77164 7.43984 7.64518 7.61277 7.48714 7.75391C7.32909 7.89504 7.14301 8.0012 6.94109 8.06544C6.73917 8.12968 6.52596 8.15054 6.31542 8.12666ZM18.1221 17.9591H15.2471V13.3304C15.2471 12.1708 14.835 11.4137 13.7904 11.4137C13.4671 11.4161 13.1524 11.5175 12.8885 11.7043C12.6246 11.8911 12.4243 12.1542 12.3146 12.4583C12.2396 12.6836 12.2071 12.9208 12.2188 13.1579V17.9496H9.34376V9.32458H12.2188V10.5417C12.4799 10.0885 12.8598 9.71512 13.3174 9.46181C13.7751 9.20851 14.2931 9.08485 14.8158 9.10416C16.7325 9.10416 18.1221 10.3404 18.1221 12.995V17.9591Z" fill="currentColor"/>
</svg>
